<?xml version="1.0" standalone="no"?>
<!DOCTYPE svg PUBLIC "-//W3C//DTD SVG 20010904//EN"
 "http://www.w3.org/TR/2001/REC-SVG-20010904/DTD/svg10.dtd">
<svg version="1.0" xmlns="http://www.w3.org/2000/svg"
 width="512.000000pt" height="512.000000pt" viewBox="0 0 512.000000 512.000000"
 preserveAspectRatio="xMidYMid meet">

<g transform="translate(0.000000,512.000000) scale(0.100000,-0.100000)"
fill="#000000" stroke="none">
<path d="M2461 4379 c-585 -52 -1114 -389 -1416 -904 -306 -520 -327 -1186
-55 -1728 373 -742 1192 -1141 2003 -976 228 46 500 164 686 297 109 78 278
235 361 337 448 548 537 1308 230 1950 -93 194 -219 364 -392 530 -136 130
-261 218 -433 305 -224 112 -421 168 -670 189 -134 12 -178 12 -314 0z m313
-109 c223 -21 413 -75 611 -174 282 -140 504 -337 678 -601 370 -562 370
-1308 0 -1870 -253 -384 -637 -648 -1083 -743 -533 -115 -1098 38 -1505 406
-276 250 -462 580 -537 954 -33 164 -33 472 0 636 137 680 648 1208 1312 1356
193 42 344 53 524 36z"/>
<path d="M2399 4095 c-327 -51 -607 -189 -842 -415 -377 -361 -545 -861 -461
-1375 90 -554 495 -1031 1029 -1213 180 -62 278 -76 505 -76 189 0 214 2 325
28 323 76 567 214 796 454 392 408 527 1008 348 1547 -72 216 -192 415 -348
577 -260 271 -570 430 -930 477 -111 14 -315 12 -422 -4z m319 -122 c48 -36
72 -81 72 -138 0 -63 -25 -104 -90 -150 -29 -20 -46 -40 -48 -56 -1 -14 40
-120 97 -249 l100 -225 -109 -3 c-60 -1 -160 -1 -224 0 l-114 3 99 224 c54
123 99 235 99 247 0 17 -16 35 -53 63 -67 49 -91 96 -85 162 6 56 40 107 90
133 44 22 129 17 166 -11z m-350 -39 c-16 -36 -19 -61 -16 -113 5 -79 28 -132
83 -186 l41 -40 -95 -215 c-52 -118 -96 -217 -98 -219 -2 -3 -104 6 -226 19
l-223 23 -17 59 c-20 68 -78 138 -141 170 -22 11 -71 23 -109 27 l-70 6 94 96
c52 52 122 117 157 143 149 113 337 205 517 252 130 33 128 34 103 -22z m662
9 c238 -69 446 -194 629 -382 l94 -96 -69 -6 c-40 -4 -88 -16 -111 -27 -60
-31 -121 -105 -141 -172 l-16 -57 -206 -22 c-113 -12 -214 -21 -225 -21 -16 1
-37 39 -113 213 -51 117 -92 215 -92 218 0 3 20 27 44 53 57 60 80 126 74 209
-2 34 -11 77 -21 95 l-16 34 42 -7 c23 -4 80 -18 127 -32z m-1396 -616 c47
-26 86 -93 86 -146 -1 -85 -77 -161 -163 -161 -91 0 -157 56 -165 141 -6 62 2
90 35 130 52 61 137 76 207 36z m2129 9 c42 -17 83 -66 96 -113 20 -72 -27
-168 -96 -194 -45 -17 -118 -11 -154 14 -39 26 -79 97 -79 142 0 17 10 51 23
75 38 77 130 110 210 76z m-2428 -320 c17 -22 53 -54 80 -71 43 -27 57 -30
129 -30 45 0 90 3 102 8 18 6 37 -14 152 -172 73 -99 132 -185 132 -191 0 -6
-59 -92 -131 -191 -123 -167 -133 -178 -153 -167 -36 20 -155 15 -206 -8 -53
-25 -112 -82 -135 -130 -9 -19 -18 -34 -20 -34 -9 0 -66 200 -81 290 -23 126
-23 354 0 480 9 52 30 140 47 195 27 85 33 97 43 81 6 -10 25 -37 41 -60z
m632 64 c190 -24 253 -33 253 -37 0 -9 -215 -373 -220 -373 -7 0 -240 316
-240 326 0 3 12 25 26 50 30 50 39 52 181 34z m1486 -22 c9 -18 22 -40 29 -49
13 -19 16 -13 -130 -211 -51 -71 -97 -128 -101 -128 -9 0 -223 372 -217 378 6
6 295 39 357 41 42 1 47 -2 62 -31z m545 -60 c49 -154 65 -265 65 -438 0 -173
-16 -284 -65 -437 -26 -85 -48 -125 -48 -90 0 25 -88 114 -136 137 -48 24
-135 31 -190 17 l-32 -8 -136 185 c-75 102 -136 190 -136 196 0 6 59 92 132
191 99 135 136 178 148 173 38 -17 151 -16 197 1 57 22 118 76 144 127 11 21
21 38 24 38 2 0 17 -42 33 -92z m-955 -198 l138 -240 -138 -240 -138 -240
-280 1 -280 0 -138 239 -138 240 138 240 138 239 280 0 280 1 138 -240z m-929
-536 c59 -102 105 -188 102 -191 -3 -3 -105 -16 -228 -30 -143 -15 -231 -29
-245 -39 -18 -11 -23 -24 -23 -55 0 -86 -63 -162 -144 -174 -37 -6 -55 -3 -93
16 -64 32 -86 66 -90 136 -5 76 23 129 87 161 54 27 92 28 149 2 78 -36 76
-37 217 156 71 97 133 182 139 190 5 8 12 14 15 14 4 0 54 -84 114 -186z
m1285 -8 c78 -107 151 -198 162 -201 11 -4 43 3 73 16 62 25 105 21 157 -14
86 -58 97 -191 22 -259 -63 -57 -158 -59 -220 -5 -45 39 -63 82 -63 146 0 52
-17 81 -48 81 -37 1 -444 48 -448 53 -6 6 208 377 217 377 4 0 70 -88 148
-194z m-563 -318 c-8 -18 -42 -98 -76 -178 -35 -80 -68 -150 -74 -156 -6 -6
-36 -9 -68 -6 l-57 4 -47 106 c-25 59 -61 142 -80 185 l-33 77 225 0 224 0
-14 -32z m-517 -56 c18 -42 58 -134 89 -205 l56 -127 -36 -38 c-50 -52 -70
-96 -76 -168 -5 -68 8 -120 44 -177 l25 -38 -23 5 c-286 63 -464 140 -650 282
-61 46 -248 229 -248 243 0 3 26 6 58 6 117 1 228 85 259 196 l15 55 182 21
c99 11 201 21 226 22 l45 1 34 -78z m894 56 c176 -18 207 -24 207 -38 0 -41
33 -120 66 -158 46 -54 101 -83 184 -97 l65 -12 -95 -94 c-218 -215 -468 -344
-777 -402 l-32 -6 31 49 c24 39 32 64 36 120 6 87 -14 145 -71 207 l-40 44 47
107 c26 59 66 151 89 204 33 76 46 98 62 98 11 0 113 -10 228 -22z m-517 -467
c56 -25 87 -71 92 -137 15 -185 -228 -248 -314 -82 -22 43 -15 125 16 168 26
36 90 70 135 70 17 0 48 -9 71 -19z"/>
<path d="M1504 3285 c-82 -42 -84 -159 -2 -201 89 -46 193 48 154 139 -25 62
-96 90 -152 62z"/>
<path d="M3654 3286 c-43 -19 -64 -53 -64 -102 0 -112 144 -154 201 -60 36 59
16 131 -45 160 -41 19 -51 19 -92 2z"/>
<path d="M2558 1410 c-14 -10 -31 -33 -38 -50 -28 -67 29 -150 103 -150 60 0
117 54 117 110 0 29 -26 76 -52 94 -32 22 -100 20 -130 -4z"/>
</g>
</svg>
